M48
;DRILL file {KiCad 4.0.4-stable} date Thu Nov 24 12:45:56 2016
;FORMAT={3:3/ absolute / metric / keep zeros}
FMAT,2
METRIC,TZ
T1C0.800
T2C0.900
T3C1.001
T4C1.016
%
G90
G05
M71
T1
X133985Y-109220
X133985Y-111220
X134620Y-090805
X134620Y-095805
X142875Y-117475
X142875Y-119475
T2
X133985Y-083820
X138430Y-088265
X140335Y-088265
X140970Y-085725
X149860Y-100965
X153670Y-099695
X169545Y-099060
X171450Y-092710
X172720Y-097790
X175260Y-088900
X177165Y-078105
X177165Y-095250
X177165Y-097790
X177165Y-109855
T3
X142875Y-106680
X142875Y-109220
X142875Y-111760
T4
X118110Y-081280
X118110Y-083820
X118110Y-086360
X118110Y-088900
X118110Y-091440
X118110Y-093980
X118110Y-100965
X118110Y-103505
X118110Y-106045
X118110Y-108585
X154940Y-117475
X154940Y-120015
X180340Y-077470
X180340Y-080010
X180340Y-082550
X180340Y-085090
X180340Y-087630
X180340Y-090170
X180340Y-092710
X180340Y-095250
X180340Y-097790
T0
M30
